<svg width="14" height="14" viewBox="0 0 14 14" fill="none" xmlns="http://www.w3.org/2000/svg">
<rect width="14" height="14" fill="#0B0D1F"/>
<g id="Comptes des soci&#195;&#169;t&#195;&#169;s de transport sanitaires">
<rect width="1280" height="720" transform="translate(-24 -316)" fill="#EDF1F5"/>
</g>
<rect id="side_nav_bg" x="-24" y="-316" width="256" height="720" fill="#648CFF"/>
<g id="Group 10">
<rect id="Rectangle 13" x="-24" y="-16" width="256" height="46" fill="#648CFF"/>
<path id="Vector" d="M0 10.8889V12.4444H4.66667V10.8889H0ZM0 1.55556V3.11111H7.77778V1.55556H0ZM7.77778 14V12.4444H14V10.8889H7.77778V9.33333H6.22222V14H7.77778ZM3.11111 4.66667V6.22222H0V7.77778H3.11111V9.33333H4.66667V4.66667H3.11111ZM14 7.77778V6.22222H6.22222V7.77778H14ZM9.33333 4.66667H10.8889V3.11111H14V1.55556H10.8889V0H9.33333V4.66667Z" fill="white"/>
</g>
</svg>
